<?xml version="1.0" encoding="UTF-8" standalone="no"?>
<!-- Uploaded to: SVG Repo, www.svgrepo.com, Generator: SVG Repo Mixer Tools -->

<svg
   fill="#000000"
   height="189.05473"
   width="154.18077"
   version="1.1"
   viewBox="0 0 87.248393 106.983"
   enable-background="new 0 0 452.707 452.707"
   id="svg16"
   sodipodi:docname="book_2.svg"
   inkscape:version="1.2.2 (732a01da63, 2022-12-09)"
   xmlns:inkscape="http://www.inkscape.org/namespaces/inkscape"
   xmlns:sodipodi="http://sodipodi.sourceforge.net/DTD/sodipodi-0.dtd"
   xmlns="http://www.w3.org/2000/svg"
   xmlns:svg="http://www.w3.org/2000/svg">
  <defs
     id="defs20" />
  <sodipodi:namedview
     id="namedview18"
     pagecolor="#ffffff"
     bordercolor="#000000"
     borderopacity="0.25"
     inkscape:showpageshadow="2"
     inkscape:pageopacity="0.0"
     inkscape:pagecheckerboard="0"
     inkscape:deskcolor="#d1d1d1"
     showgrid="false"
     inkscape:zoom="2.01"
     inkscape:cx="114.42786"
     inkscape:cy="113.18408"
     inkscape:window-width="1920"
     inkscape:window-height="991"
     inkscape:window-x="-9"
     inkscape:window-y="-9"
     inkscape:window-maximized="1"
     inkscape:current-layer="svg16" />
  <g
     id="g14"
     transform="matrix(0.26695017,0,0,0.23631841,-16.800776,0)">
    <path
       d="m 234.873,126.705 h -12.348 c -5.523,0 -10,4.477 -10,10 v 43.498 43.498 c 0,5.523 4.477,10 10,10 h 21.749 c 17.506,0 31.749,-14.242 31.749,-31.749 0,-11.08 -5.709,-20.847 -14.336,-26.529 3.12,-4.913 4.936,-10.731 4.936,-16.969 -10e-4,-17.506 -14.244,-31.749 -31.75,-31.749 z m -2.348,20 h 2.348 c 6.479,0 11.749,5.271 11.749,11.749 0,6.478 -5.271,11.749 -11.749,11.749 h -2.348 z m 11.749,66.996 h -11.749 v -23.498 h 2.348 9.401 c 6.478,0 11.749,5.271 11.749,11.749 -0.001,6.479 -5.271,11.749 -11.749,11.749 z"
       id="path2"
       style="display:none" />
    <path
       d="m 310.048,146.708 c 6.479,0 11.75,5.271 11.75,11.75 0,5.523 4.477,10 10,10 5.523,0 10,-4.477 10,-10 0,-17.507 -14.243,-31.75 -31.75,-31.75 -17.507,0 -31.75,14.243 -31.75,31.75 v 43.49 c 0,17.507 14.243,31.75 31.75,31.75 17.507,0 31.75,-14.243 31.75,-31.75 0,-5.523 -4.477,-10 -10,-10 -5.523,0 -10,4.477 -10,10 0,6.479 -5.271,11.75 -11.75,11.75 -6.479,0 -11.75,-5.271 -11.75,-11.75 v -43.49 c 0,-6.479 5.271,-11.75 11.75,-11.75 z"
       id="path4"
       style="display:none" />
    <path
       d="m 150.541,233.383 c 0.84,0.217 1.682,0.321 2.511,0.321 4.449,0 8.509,-2.991 9.675,-7.499 l 3.258,-12.598 h 19.118 l 3.258,12.599 c 1.383,5.347 6.839,8.559 12.186,7.177 5.347,-1.383 8.561,-6.838 7.178,-12.185 l -22.499,-86.996 c -1.142,-4.413 -5.123,-7.496 -9.682,-7.496 -4.559,0 -8.54,3.083 -9.682,7.496 l -22.499,86.996 c -1.383,5.346 1.831,10.802 7.178,12.185 z m 29.389,-39.777 h -8.773 l 4.387,-16.962 z"
       id="path6"
       style="display:none" />
    <path
       d="M 331.798,242.2 H 153.045 c -5.523,0 -10,4.477 -10,10 0,5.523 4.477,10 10,10 h 178.753 c 5.523,0 10,-4.477 10,-10 0,-5.523 -4.477,-10 -10,-10 z"
       id="path8"
       style="display:none" />
    <path
       d="m 153.045,116.707 h 178.753 c 5.523,0 10,-4.477 10,-10 0,-5.523 -4.477,-10 -10,-10 H 153.045 c -5.523,0 -10,4.477 -10,10 0,5.523 4.477,10 10,10 z"
       id="path10"
       style="display:none" />
    <path
       d="M 379.771,0 H 117.116 C 87.241,0 62.936,24.305 62.936,54.18 v 344.346 c 0,29.875 24.305,54.181 54.18,54.181 H 379.77 c 5.523,0 10,-4.477 10,-10 V 10 C 389.771,4.477 385.294,0 379.771,0 Z m -10,344.346 H 127.116 V 20 H 369.77 V 344.346 Z M 107.117,21.496 v 323.791 c -9.048,1.696 -17.311,5.639 -24.18,11.24 V 54.18 c 0,-15.368 10.197,-28.398 24.18,-32.684 z m 10,411.211 c -18.847,0 -34.18,-15.333 -34.18,-34.181 0,-18.847 15.333,-34.18 34.18,-34.18 h 252.654 v 10.18 H 139.117 c -5.523,0 -10,4.477 -10,10 0,5.523 4.477,10 10,10 h 230.655 v 8 h -60.655 c -5.523,0 -10,4.477 -10,10 0,5.523 4.477,10 10,10 h 60.655 v 10.181 z"
       id="path12" />
  </g>
  <path
     style="fill:#ffffff;stroke-width:0.281534"
     d="M 11.390547,101.58655 C 5.4775368,99.517781 3.6090147,93.189226 7.7057737,89.106488 c 0.7096187,-0.707185 1.923668,-1.59848 2.6978873,-1.980644 l 1.407671,-0.694843 34.980626,-0.07469 34.980625,-0.07469 v 0.989674 0.989674 H 50.93554 c -33.011877,0 -32.302169,-0.02931 -33.048562,1.365331 -0.400629,0.748579 -0.372448,2.041629 0.05668,2.600547 0.852716,1.110632 0.588806,1.101736 32.700892,1.101736 h 31.128037 v 0.844604 0.844604 h -8.60845 -8.60845 l -0.822948,0.822948 c -1.350045,1.35004 -1.010877,3.115009 0.739112,3.846199 0.748037,0.312554 2.716016,0.398472 9.127202,0.398472 h 8.173534 v 0.98537 0.98537 l -34.558322,-0.0135 c -30.679881,-0.0119 -34.70034,-0.0631 -35.823714,-0.45616 z"
     id="path401" />
  <path
     style="fill:#00ff00;stroke-width:0.281534"
     d="M 17.301249,43.074733 V 4.9268484 h 32.235664 32.23567 V 43.074733 81.222618 H 49.536913 17.301249 Z"
     id="path483" />
  <path
     style="fill:#ff5555;stroke-width:0.281534"
     d="M 5.4768119,47.7702 C 5.4768119,7.8386915 5.3570477,10.377859 7.3503223,8.0491658 8.2953611,6.9451011 9.1207767,6.3703805 10.896346,5.5801403 L 11.670565,5.2355646 V 43.328072 81.420581 l -1.7741699,0.480243 c -0.9757935,0.264137 -2.3189746,0.789702 -2.9848466,1.167922 -0.6658721,0.378225 -1.2610901,0.687679 -1.3227063,0.687679 -0.061617,0 -0.1120303,-16.193799 -0.1120303,-35.986225 z"
     id="path485" />
  <path
     style="fill:#ff5555;stroke-width:0.281534"
     d="M 17.301249,43.074733 V 4.9268484 h 32.235664 32.23567 V 43.074733 81.222618 H 49.536913 17.301249 Z"
     id="path569" />
</svg>
