<?xml version="1.0" encoding="UTF-8" standalone="no"?>
<svg
   width="125"
   height="125"
   viewBox="0 0 125 125"
   version="1.1"
   id="svg54"
   sodipodi:docname="boy_with_mustages.svg"
   inkscape:version="1.2.2 (732a01da63, 2022-12-09)"
   fill="#999"
   xmlns:inkscape="http://www.inkscape.org/namespaces/inkscape"
   xmlns:sodipodi="http://sodipodi.sourceforge.net/DTD/sodipodi-0.dtd"
   xmlns="http://www.w3.org/2000/svg"
   xmlns:svg="http://www.w3.org/2000/svg"
   xmlns:rdf="http://www.w3.org/1999/02/22-rdf-syntax-ns#"
   xmlns:cc="http://creativecommons.org/ns#"
   xmlns:dc="http://purl.org/dc/elements/1.1/">
  <title
     id="title140">boy</title>
  <defs
     id="defs58" />
  <sodipodi:namedview
     id="namedview56"
     pagecolor="#43ffff"
     bordercolor="#000000"
     borderopacity="0.25"
     inkscape:showpageshadow="2"
     inkscape:pageopacity="0.77254902"
     inkscape:pagecheckerboard="0"
     inkscape:deskcolor="#d1d1d1"
     showgrid="false"
     inkscape:zoom="2.4814815"
     inkscape:cx="10.074627"
     inkscape:cy="88.455223"
     inkscape:window-width="1920"
     inkscape:window-height="991"
     inkscape:window-x="-9"
     inkscape:window-y="-9"
     inkscape:window-maximized="1"
     inkscape:current-layer="images" />
  <desc
     id="desc33">Created with Sketch.</desc>
  <g
     id="Introduction"
     stroke="none"
     stroke-width="1"
     fill="none"
     fill-rule="evenodd"
     transform="translate(-64.686927,-31.369639)">
    <g
       id="variations"
       transform="translate(-2286,-434)">
      <g
         id="images"
         transform="translate(126,110)">
        <rect
           style="fill:#cccccc"
           id="rect5209"
           width="125"
           height="125"
           x="2224.687"
           y="355.36963" />
        <g
           id="a-person/bust"
           transform="translate(2160,324)">
          <g
             id="head/hat-hip"
             transform="translate(78.591549,38.043053)"
             fill-rule="evenodd">
            <path
               d="M 88.432542,59.852733 C 88.348458,55.118064 88.2555,50.28871 87.551979,45.600115 86.864091,41.01635 84.971768,36.873039 81.719937,33.544483 74.812965,26.474182 64.800993,24.747238 55.481556,23.164647 L 39.547965,20.458729 c -4.861057,-0.825322 -10.047042,-2.144571 -14.958381,-0.974113 -2.42007,0.576775 -4.475281,1.916736 -6.353662,3.502074 -1.810563,1.528063 -3.757183,3.168987 -4.984013,5.224791 -1.228944,2.058763 -1.651691,4.465409 -2.051198,6.793855 -0.450633,2.625182 -0.800704,5.270865 -1.049366,7.922889 -0.4983802,5.313346 -0.5664084,10.666638 -0.2049295,15.990974 0.1751405,2.582489 0.4538025,5.157581 0.8095775,7.721261 0.176408,1.271272 0.375845,2.539373 0.601056,3.803037 0.06634,0.37261 0.116831,0.785166 0.18486,1.201949 -0.502606,1.429996 -0.78824,2.910927 -0.765212,4.385518 0.06782,4.343672 3.732676,7.078333 7.427324,8.546584 2.142254,0.851318 4.381901,1.429784 6.486761,2.380861 2.214295,1.000321 3.721479,2.622011 5.235422,4.47196 2.887395,3.528282 6.145775,6.699382 9.866409,9.345061 7.888309,5.60945 17.879577,8.26253 27.450845,6.24879 2.296479,-0.48315 4.613239,-1.23344 6.677535,-2.36396 2.179437,-1.19349 3.818239,-2.92297 5.194437,-4.967785 2.555281,-3.796063 4.387817,-8.070622 5.774154,-12.420423 1.414015,-4.437088 2.417747,-8.882207 2.965141,-13.508876 0.545493,-4.611664 0.660423,-9.270247 0.577817,-13.910443 z"
               id="path38"
               fill="#ffffff"
               style="fill:#cccccc" />
            <path
               d="M 37.586831,3.9657346 C 44.180493,3.0584078 53.281268,6.0073785 56.565,11.953508 72.242324,8.2561456 92.015493,8.1350419 104.93683,20.443449 118.41972,35.04395 101.48451,54.294791 90.255,58.635081 c 0.817606,3.974865 -0.457183,29.439405 -9.477253,40.798004 -7.158592,9.624045 -23.829085,14.065575 -31.543099,2.570445 l -0.06017,-0.0948 c -0.826444,-1.32755 -0.114676,-1.28492 0.733693,-0.29742 7.553662,6.64528 17.824014,6.75877 25.73831,-0.25425 C 90.479155,88.538611 88.949789,57.108709 81.891761,38.926032 61.793873,36.717844 40.275422,42.811707 26.394085,57.94629 l 0.938661,5.653198 c 0.15993,0.963123 0.34162,1.925401 0.480212,2.891906 0.08873,0.619257 0.09866,1.235131 -0.330212,1.736454 -1.416126,1.654873 -3.802816,-0.831875 -5.766549,-1.820994 -0.579718,-0.08158 -1.160493,-0.113072 -1.73007,-0.07292 -9.434789,1.215687 -7.575845,19.524963 2.793591,16.315609 0.871268,-0.542959 1.619789,-0.37726 1.957817,0.410653 2.47162,2.26483 4.101338,6.304157 8.207747,10.194693 1.448873,1.459374 2.767394,2.680345 4.397112,3.851014 0.957254,0.968407 3.845705,1.955835 2.930071,3.613037 C 38.540915,104.48985 28.330141,92.644721 26.524859,89.369003 20.868591,91.603398 14.600282,90.844439 8.738662,90.29831 -22.184577,88.689934 -18.056408,56.080697 7.2906338,35.492854 12.061901,31.978944 17.326056,29.1124 22.798099,26.906537 c 0.747042,-0.301174 0.420633,-1.528274 -0.336972,-1.222873 -3.620705,1.459797 -7.150352,3.197307 -10.515,5.208305 l -0.0051,-1.202283 c -0.0049,-2.025 0.02682,-4.13322 0.378404,-5.983415 0.175774,-1.282051 0.471338,-2.65139 0.926408,-3.681511 0.562612,-3.158203 9.37564,-13.9987827 24.340992,-16.0590254 z M 19.573437,70.5374 c 0.477464,-0.45377 1.368802,0.08729 1.793873,0.07376 1.086972,0.14879 2.119648,0.608055 2.925,1.174896 0.53176,0.298004 0.904436,0.577832 1.215845,0.835256 l 0.0085,-0.0023 c -0.0023,0 -0.0053,0.0023 -0.0078,0.003 l 0.02931,0.01981 c 0.453438,0.322292 2.113341,2.137629 1.064632,1.649431 -0.07817,-0.101659 -0.158239,-0.199303 -0.238943,-0.295045 -0.0087,0.0131 -0.0207,0.026 -0.03507,0.03847 l 0.05891,0.08745 c 0.891336,1.341332 -0.647572,-0.07181 -0.884329,-0.447172 -0.0112,0.0091 -0.02387,0.01522 -0.03634,0.02177 l 0.308331,0.375409 c 0.04311,0.0533 0.07699,0.09585 0.10512,0.131831 l 0.06502,0.06279 c 1.030565,1.01336 1.062761,1.925347 -0.134525,0.427119 0.04711,0.07059 0.08493,0.145409 0.09021,0.211772 l 0.07095,0.09049 c 0.940064,1.211836 0.175433,0.781464 -0.291699,0.263893 l -0.03909,-0.04452 0.008,0.01209 c 0.434573,0.669725 -0.427679,0.19981 -0.580043,-0.158433 l -0.0064,-0.0162 c -0.166028,-0.135518 -0.268195,-0.287606 -0.303238,-0.326012 l -0.0065,-0.0064 c -0.808309,-0.828493 -1.98,-1.529542 -2.975281,-1.848047 -0.144296,-0.02748 -0.290282,-0.04946 -0.437747,-0.0651 -0.598521,-0.133574 -1.203591,-0.225088 -1.815,-0.274544 -0.07479,-0.0089 -0.150633,-0.06383 -0.207253,-0.134842 -0.924543,-0.03119 -0.639149,-0.410303 -0.255563,-0.480704 l 0.0067,-0.0012 -0.0761,-0.0064 c -0.593396,-0.058 -0.998608,-0.270968 -0.398672,-0.401682 l 0.07602,-0.01512 c -0.0093,-0.01458 -0.01754,-0.02917 -0.02556,-0.04375 -0.513803,-0.05643 -0.178521,-0.556063 0.10669,-0.435171 -0.12,-0.392477 0.428451,-0.196555 0.496902,-0.254888 0.05218,-0.05791 0.117042,-0.109057 0.154436,-0.111804 0.165212,-0.116666 0.08514,-0.106098 0.170705,-0.109902 z m 3.143746,-6.354374 -0.120422,0.07038 c -0.0974,0.05685 -0.197536,0.09468 -0.298099,0.116877 0.141972,0.06045 0.282253,0.125753 0.421056,0.195499 -0.0023,-0.08525 -0.0038,-0.170396 -0.0038,-0.25539 z"
               id="path40"
               fill="#000000"
               style="fill:#333333" />
          </g>
          <g
             id="face/Smiling"
             transform="translate(112.1831,77.354207)"
             fill="#000000"
             fill-rule="evenodd">
            <path
               d="m 30.968993,50.919898 c -1.420199,-0.579597 -2.687376,-1.546402 -3.613804,-2.781433 -0.322085,-0.429348 -0.405596,-0.882732 -0.33803,-1.29741 0.07597,-0.466276 0.351722,-0.888873 0.72778,-1.172337 0.377224,-0.284343 0.849082,-0.424574 1.305271,-0.353088 0.396402,0.06212 0.791,0.279241 1.103296,0.729548 l 0.06525,0.09005 c 0.550778,0.745422 1.268492,1.357032 2.086277,1.75125 0.788212,0.379963 1.669747,0.557306 2.581992,0.454177 1.737429,-0.19634 2.934953,-1.136329 4.20779,-2.412817 0.157772,-0.16116 0.315645,-0.327372 0.474284,-0.496259 0.100183,-0.153096 0.239212,-0.251491 0.393572,-0.303117 0.171389,-0.05732 0.365271,-0.05408 0.542852,0.0079 0.171277,0.0598 0.32439,0.173105 0.427057,0.323913 0.09758,0.14333 0.152899,0.320396 0.134948,0.524065 -0.116505,1.322871 -0.807846,2.503477 -1.789869,3.430502 -1.090661,1.02958 -2.536412,1.741851 -3.897523,1.991666 -1.499545,0.275182 -3.027542,0.07803 -4.411139,-0.486629 z M 36.087529,30.51204 c 1.595362,0.970108 4.026203,3.232209 2.309961,5.637224 -2.020181,2.120581 -4.928786,-0.31081 -6.362095,-1.410433 -1.329032,-0.852215 -2.822274,1.339617 -1.589198,2.334721 10.357127,7.671008 14.560269,-6.307842 6.448244,-7.70212 -0.893164,-0.153644 -1.224887,0.840495 -0.806912,1.140608 z M 17.527458,21.588672 c 0.176266,-2.188802 3.508521,-2.68584 3.84,-0.519922 0.296831,1.940196 -0.05261,3.722513 -0.926197,5.469323 -0.834719,1.668822 -2.932715,0.890238 -3.091377,-0.629371 -0.21268,-2.036972 0.06793,-2.95847 0.177574,-4.32003 z m 25.36557,-0.96902 c 0.464578,-0.608689 1.135352,-1.024204 1.939014,-0.789394 2.510916,0.73402 1.770845,4.300133 0.889014,6.035953 -0.479155,0.942623 -2.027957,1.18166 -2.727887,0.351687 -1.140845,-1.353487 -1.687183,-4.056446 -0.236831,-5.389644 0.0393,-0.0689 0.08303,-0.138434 0.13669,-0.208602 z m -22.487134,-8.608509 0.396628,-0.06945 c 1.227,-0.21229 2.752633,-0.416276 3.620626,0.57056 0.460352,0.523304 0.618803,1.495938 0,1.996838 -1.088451,0.881331 -2.291831,0.539789 -3.596197,0.614395 -1.07493,0.06171 -2.108028,0.239672 -3.143451,0.535773 -2.271549,0.64948 -4.122465,1.835155 -6.062535,3.137073 -0.254578,0.170771 -0.514437,-0.15492 -0.392958,-0.393112 1.11993,-2.19445 3.290282,-3.997057 5.464225,-5.095867 1.160282,-0.586497 2.43,-1.073025 3.713662,-1.29621 z m 20.198235,-0.983014 0.303576,0.06215 c 3.303642,0.690821 7.595846,2.070794 9.160279,5.317019 0.05961,0.459028 -0.0034,0.557407 -0.05459,0.621682 l -0.01705,0.02139 c -0.0422,0.05489 -0.07588,0.130549 -0.274764,0.193024 -0.05519,-0.01316 -0.110931,-0.02709 -0.167261,-0.04186 -0.717109,-0.188001 -1.284481,-0.447 -1.833757,-0.715742 L 47.125001,16.192275 C 46.434039,15.85335 45.736976,15.52676 44.998249,15.285659 43.421742,14.771244 41.80017,14.408871 40.153474,14.215372 c -0.356909,-0.0419 -0.700589,-0.162408 -0.971729,-0.368932 -0.257365,-0.196032 -0.453976,-0.467444 -0.543619,-0.828209 -0.116178,-0.466887 -0.08279,-0.820359 0.167616,-1.24156 0.188291,-0.316313 0.457705,-0.535559 0.767061,-0.661458 0.315374,-0.128348 0.674425,-0.158606 1.031326,-0.08708 z"
               id="path43"
               style="fill:#333333" />
          </g>
          <g
             id="facial-hair/Moustache-4"
             transform="translate(104.57745,109.47938)"
             fill="#000000"
             fill-rule="evenodd">
            <path
               d="m 64.493366,2.7485683 c -0.700141,-0.9402975 -1.958662,-2.17437182 -3.23176,-2.10800783 -0.162888,0.008454 -0.223944,0.18493151 -0.126127,0.30434442 0.416408,0.50872021 0.985352,0.87055181 1.402605,1.38983951 0.493733,0.6146067 0.850141,1.3558122 1.081902,2.1054716 0.336761,1.0890881 0.429718,2.321683 0.129507,3.4291586 -0.529014,1.9520313 -2.20162,3.3828724 -4.026549,4.1135104 -1.806338,0.723241 -3.979859,0.97031 -5.688169,-0.0894 C 51.513296,10.329069 49.374634,8.0739616 46.205408,8.0293667 45.46407,8.0190106 44.941606,8.3586505 44.630409,8.8434881 44.317732,8.3759812 43.801817,8.045218 43.07907,8.0369753 c -3.552887,-0.039945 -6.204718,2.4068567 -9.18676,3.9321727 -2.015282,1.030966 -4.622958,0.710982 -6.702042,0.0298 -1.961198,-0.642294 -4.090141,-1.932164 -4.83,-3.9689472 C 21.951887,6.9051945 22.043366,5.5918638 22.462732,4.4831202 22.738437,3.7539616 23.164141,3.0495311 23.690831,2.4765605 24.236958,1.8822434 24.954845,1.5085761 25.514282,0.94511624 25.628577,0.82993033 25.538366,0.65091663 25.388155,0.64056047 23.012239,0.4793002 20.866817,3.3173119 20.418296,5.3762865 c -0.441761,2.0276947 0.216972,4.0501057 1.550281,5.5974015 2.711198,3.145737 7.731338,4.183256 11.638522,3.25881 3.162464,-0.747969 6.166056,-2.470896 9.471971,-2.223617 0.724648,0.05432 1.244789,-0.247913 1.558733,-0.706121 0.314366,0.471523 0.837887,0.779883 1.567605,0.709292 3.081127,-0.298638 5.831198,1.884188 8.821902,2.417213 2.381197,0.42418 4.95338,-0.147945 6.993803,-1.431264 C 64.153859,11.65656 65.655127,9.5048031 65.754,6.9394333 65.81083,5.4635742 65.377944,3.9365683 64.493366,2.7485683"
               id="path46"
               style="fill:#000000" />
          </g>
        </g>
      </g>
    </g>
  </g>
  <metadata
     id="metadata164">
    <rdf:RDF>
      <cc:Work
         rdf:about="">
        <dc:title>boy</dc:title>
      </cc:Work>
    </rdf:RDF>
  </metadata>
</svg>
