<?xml version="1.0" encoding="UTF-8" standalone="no"?>
<svg
   width="125"
   height="125"
   viewBox="0 0 125 125"
   version="1.1"
   id="svg54"
   sodipodi:docname="girl_with_glasses.svg"
   inkscape:version="1.2.2 (732a01da63, 2022-12-09)"
   xmlns:inkscape="http://www.inkscape.org/namespaces/inkscape"
   xmlns:sodipodi="http://sodipodi.sourceforge.net/DTD/sodipodi-0.dtd"
   xmlns="http://www.w3.org/2000/svg"
   xmlns:svg="http://www.w3.org/2000/svg"
   xmlns:rdf="http://www.w3.org/1999/02/22-rdf-syntax-ns#"
   xmlns:cc="http://creativecommons.org/ns#"
   xmlns:dc="http://purl.org/dc/elements/1.1/">
  <title
     id="title5292">girl</title>
  <defs
     id="defs58" />
  <sodipodi:namedview
     id="namedview56"
     pagecolor="#ffffff"
     bordercolor="#000000"
     borderopacity="0.25"
     inkscape:showpageshadow="2"
     inkscape:pageopacity="0.0"
     inkscape:pagecheckerboard="0"
     inkscape:deskcolor="#d1d1d1"
     showgrid="false"
     inkscape:zoom="2.4814815"
     inkscape:cx="22.365671"
     inkscape:cy="59.843283"
     inkscape:window-width="1920"
     inkscape:window-height="991"
     inkscape:window-x="-9"
     inkscape:window-y="-9"
     inkscape:window-maximized="1"
     inkscape:current-layer="Introduction" />
  <!-- Generator: Sketch 62 (91390) - https://sketch.com -->
  <desc
     id="desc33">Created with Sketch.</desc>
  <g
     id="Introduction"
     stroke="none"
     stroke-width="1"
     fill="none"
     fill-rule="evenodd"
     transform="matrix(1,0,0,0.99186014,-64.870554,-34.220499)">
    <rect
       style="fill:#cccccc;stroke-width:1.00409"
       id="rect5271"
       width="125"
       height="126.02583"
       x="64.870552"
       y="34.501335" />
    <g
       id="variations"
       transform="translate(-3006,-758)">
      <g
         id="images"
         transform="translate(126,110)">
        <g
           id="a-person/bust"
           transform="translate(2880,648)">
          <g
             id="head/Medium-Bangs-3"
             transform="translate(78.591549,38.043053)"
             fill-rule="evenodd">
            <path
               d="m 54.206259,8.2379215 c 11.99591,0 27.020338,13.6893475 31.417576,19.5147055 3.696988,4.897682 3.173983,30.128865 3.173983,45.096057 0,3.130307 -1.414453,9.054765 -1.927932,12.049024 C 84.988289,95.869899 76.79057,105.0719 60.565537,105.0719 c -13.211068,0 -23.377762,-4.18614 -33.20919,-14.892893 -2.242936,-2.442632 -13.196839,6.301886 -15.437044,3.152771 -5.8514039,0 -10.7441491,-54.69277 0.7443,-71.097419 C 24.152052,5.8297112 42.210348,8.2379215 54.206259,8.2379215 Z"
               id="path38"
               fill="#ffffff"
               style="fill:#cccccc" />
            <path
               d="m 18.151415,12.090272 c 6.931691,-6.3088059 16.166198,-9.3437961 25.483099,-9.1197648 4.825352,0.1162427 9.633803,1.0356165 14.190845,2.6101762 2.279578,0.7904501 4.487324,1.8218395 6.597888,2.9884931 0.760563,0.4194491 1.461721,0.9109323 2.136708,1.4328915 l 0.168221,0.131101 h 0.0021 c 1.810563,0.650959 3.42676,1.819726 4.892957,3.187162 2.938733,-0.234599 5.900705,0.02959 8.742254,0.936282 3.95493,1.263875 7.616197,3.57816 10.187324,6.864658 2.994911,3.826121 3.990563,8.467152 3.635302,13.258123 l -0.0656,0.813891 c -0.351313,4.23221 -0.980621,9.675833 -4.452804,12.456674 -0.264084,0.211351 -0.555634,0.371977 -0.857746,0.469198 2.237324,3.833894 4.073239,8.090489 5.171831,12.389354 4.193662,16.419804 0.969718,33.543405 -4.07324,49.369319 -0.414084,1.30403 -2.385211,2.17056 -3.388732,0.89612 -1.791549,-2.27836 -4.394366,-4.01565 -7.322535,-4.34113 -1.806338,-0.20079 -3.604225,0.16274 -5.311268,-0.6573 -0.669718,-0.32337 -1.316197,-0.85174 -1.780986,-1.49425 -2.88169,1.09268 -5.985211,1.60838 -9.06338,1.48157 -5.051408,-0.20713 -10.451408,-1.95711 -13.926761,-5.795229 -0.557746,-0.616086 -0.699084,-1.307836 -0.570633,-1.931319 0.435845,-0.155554 0.883309,-0.271374 1.344295,-0.343867 4.407043,2.598345 9.26493,4.334585 14.485775,4.443645 3.01669,0.063 5.959225,-0.35909 8.405282,-2.243488 0.529225,-0.407907 1.015986,-0.859562 1.465986,-1.344822 5.114155,-3.291147 8.719859,-8.881151 10.434084,-14.868916 1.597183,-5.583875 1.400704,-11.398122 0.851409,-17.125715 L 85.243314,63.530697 C 84.820892,59.094648 84.42899,54.645325 84.319162,50.19039 l 0.03317,-0.0017 v 0 c 1.08,-0.06975 1.087817,-1.761182 0,-1.690802 -2.813873,0.182184 -5.606408,-0.279617 -8.41162,-0.07841 -0.02345,-1.326646 -0.118943,-2.647374 -0.508732,-3.926889 -0.222465,-0.73106 -1.49493,-0.875201 -1.629718,0 -0.180423,1.170881 -0.246339,2.33521 -0.265986,3.511374 -4.198099,-0.0558 -8.392183,-0.409174 -12.590916,-0.263976 -0.774507,-0.82638 -1.021056,-2.291672 -1.38338,-3.311014 -0.05282,-0.150059 -0.105634,-0.298004 -0.160564,-0.448063 -0.31838,1.456626 -0.769647,2.881339 -1.363309,4.276039 l -1.029732,0.0035 c -5.842574,0.02742 -11.804036,0.202118 -17.509212,1.415938 -0.396549,-0.304556 -0.632535,-0.83589 -0.696338,-1.318403 -0.413829,-3.139769 -1.004462,-6.196069 -2.051225,-9.188171 l -0.149753,-0.422147 c -0.01224,-0.03502 -0.02515,-0.07223 -0.03867,-0.111373 -0.771338,1.245487 -1.69162,2.406434 -2.695352,3.487491 -0.591549,0.637221 -1.211831,1.246544 -1.84838,1.838536 -0.618381,0.686889 -1.257465,1.363421 -1.876902,2.052423 0.0243,0.125331 0.04542,0.252564 0.06254,0.382121 0.189506,1.429785 0.209154,2.879859 0.07035,4.315139 -0.250986,2.594748 -0.98324,5.095022 -2.159578,7.408039 l -0.03722,0.231598 c -0.178627,1.083958 -0.432783,2.204186 -1.026304,3.020449 0.740704,0.830184 1.311338,1.82184 1.642183,2.923609 0.294507,0.980877 -1.062042,1.830928 -1.765563,1.028219 -0.558803,-0.637644 -1.179719,-1.165385 -1.86169,-1.586395 -0.0431,0.05854 -0.120846,0.08729 -0.208099,0.03847 -1.899296,-1.054638 -5.125352,-0.735499 -7.022535,0.257847 -2.359859,1.234286 -3.280986,3.768376 -3.019014,6.336282 0.251408,2.453777 1.324648,5.3218 3.405633,6.579334 0.95493,0.576987 1.698592,0.625597 2.712676,0.348729 0.324241,-0.0881 0.726223,-0.358301 0.898772,-0.492525 l 0.169813,-0.136163 c 0.664796,-0.525633 1.283951,-0.885567 2.068739,-0.899375 0.802641,-0.250406 1.609333,0.09696 1.916301,0.938933 l 0.01891,0.05441 c 0.143662,0.429041 0.405634,0.967985 0.348591,1.623171 -0.05916,0.701682 -0.380281,1.33996 -0.859859,1.853542 -0.08239,0.08877 -0.171127,0.177534 -0.261972,0.25996 8.260564,8.946458 9.321127,22.887123 5.085212,34.063323 -0.183803,0.49033 -0.380282,0.97433 -0.585212,1.45409 -0.707746,1.64431 -3.433098,1.13495 -3.779577,-0.49456 -0.103521,-0.48822 -0.217606,-0.97432 -0.342254,-1.4562 -0.229108,-0.89049 -0.491601,-1.77263 -0.78748,-2.64197 l -0.11252,-0.32539 c -0.251408,-0.71859 -0.485915,-1.44352 -0.739436,-2.16211 l -0.02535,-0.0822 c -0.0095,-0.0325 -0.02007,-0.07 -0.03169,-0.11228 l -0.428874,0.93629 v 0 l -1.303521,2.82575 c -0.60997,1.31864 -2.548035,0.60199 -2.620102,-0.66872 l -0.0017,-0.0435 c -0.0063,-0.2346 -0.01479,-0.46708 -0.02958,-0.69746 -0.09296,-1.72673 -0.390845,-3.40485 -0.864085,-5.04704 l -0.170735,0.21226 c -2.542385,3.14442 -5.526177,6.09171 -9.6194057,6.81725 -1.0267606,0.18176 -2.1887324,-0.8919 -1.4830986,-1.92963 0.2915493,-0.42904 0.5725352,-0.86865 0.8387324,-1.3146 -0.2302817,-0.10779 -0.4478873,-0.2198 -0.6485916,-0.33393 C 6.0331056,108.62663 4.7401479,107.38389 3.6711338,105.97419 1.4042324,102.98569 0.59296479,99.223658 0.39437324,95.541936 0.18310563,91.650977 0.52535915,87.548668 1.5880352,83.795086 2.0485986,82.171916 2.671838,80.614265 3.3922606,79.10311 3.3415563,78.967846 3.2929648,78.832582 3.2443732,78.697317 2.4669085,76.528863 1.8288803,74.311799 1.2985986,72.069372 0.22958451,67.542249 -0.34506338,62.871407 -0.41478169,58.219588 -0.54154225,49.886045 0.89507747,41.419353 3.9225422,33.648002 7.0493028,25.633599 11.75212,17.912973 18.151415,12.090272 Z m -3.893661,72.860901 c -0.574151,-0.904381 -2.010744,-0.08939 -1.477629,0.821292 l 0.01988,0.03256 c 0.910563,1.435068 1.337324,3.066692 1.861268,4.666614 0.335915,1.029276 1.969014,0.589668 1.628873,-0.450176 l -0.112602,-0.347181 c -0.52137,-1.622444 -0.996976,-3.271277 -1.919792,-4.723112 z m 5.000704,-17.263114 0.38144,-0.184661 c 1.203226,-0.574408 2.257491,-0.965682 3.679123,-0.464184 1.903521,0.66998 3.942254,2.802505 2.655634,4.871624 -0.47324,0.762975 -1.314085,1.067319 -2.180282,0.887672 -1.460282,-0.302961 -1.837119,-1.618484 -2.578165,-2.698378 l -0.12752,-0.182855 C 20.636898,69.26384 20.065564,68.360538 19.313387,68.10442 19.142261,68.04524 19.07043,67.77894 19.258458,67.688059 Z m 1.072931,-43.931009 0.122843,-0.110144 c 0.817606,-0.722818 -0.382394,-1.914833 -1.195774,-1.196242 -3.722535,3.290724 -5.015493,8.44133 -6.946479,12.831076 -0.433099,0.987006 1.022535,1.849315 1.459859,0.853855 C 15.6138,31.94673 16.836446,26.935916 20.331389,23.75705 Z M 65.0655,22.317513 c -0.972645,-0.438488 -1.823629,0.977555 -0.888532,1.443802 l 0.03501,0.01663 c 3.287324,1.485792 4.685915,4.850489 6.025352,7.974246 0.42676,0.997574 1.882394,0.137378 1.459859,-0.851742 L 71.455482,30.339954 C 70.057865,27.120786 68.427766,23.839514 65.0655,22.317513 Z m 5.152817,-2.03319 c -1.030986,-0.357182 -1.472535,1.274443 -0.45,1.631625 2.78662,0.970097 4.698592,3.062465 6.310563,5.454951 0.604226,0.896125 2.06831,0.05072 1.457747,-0.853856 -1.871831,-2.777142 -4.094366,-5.108336 -7.31831,-6.23272 z"
               id="path40"
               fill="#000000"
               style="fill:#333333" />
          </g>
          <g
             id="face/Smiling"
             transform="translate(112.1831,77.354207)"
             fill="#000000"
             fill-rule="evenodd"
             style="fill:#333333">
            <path
               d="m 30.968993,50.919898 c -1.420199,-0.579597 -2.687376,-1.546402 -3.613804,-2.781433 -0.322085,-0.429348 -0.405596,-0.882732 -0.33803,-1.29741 0.07597,-0.466276 0.351722,-0.888873 0.72778,-1.172337 0.377224,-0.284343 0.849082,-0.424574 1.305271,-0.353088 0.396402,0.06212 0.791,0.279241 1.103296,0.729548 l 0.06525,0.09005 c 0.550778,0.745422 1.268492,1.357032 2.086277,1.75125 0.788212,0.379963 1.669747,0.557306 2.581992,0.454177 1.737429,-0.19634 2.934953,-1.136329 4.20779,-2.412817 0.157772,-0.16116 0.315645,-0.327372 0.474284,-0.496259 0.100183,-0.153096 0.239212,-0.251491 0.393572,-0.303117 0.171389,-0.05732 0.365271,-0.05408 0.542852,0.0079 0.171277,0.0598 0.32439,0.173105 0.427057,0.323913 0.09758,0.14333 0.152899,0.320396 0.134948,0.524065 -0.116505,1.322871 -0.807846,2.503477 -1.789869,3.430502 -1.090661,1.02958 -2.536412,1.741851 -3.897523,1.991666 -1.499545,0.275182 -3.027542,0.07803 -4.411139,-0.486629 z M 36.087529,30.51204 c 1.595362,0.970108 4.026203,3.232209 2.309961,5.637224 -2.020181,2.120581 -4.928786,-0.31081 -6.362095,-1.410433 -1.329032,-0.852215 -2.822274,1.339617 -1.589198,2.334721 10.357127,7.671008 14.560269,-6.307842 6.448244,-7.70212 -0.893164,-0.153644 -1.224887,0.840495 -0.806912,1.140608 z M 17.527458,21.588672 c 0.176266,-2.188802 3.508521,-2.68584 3.84,-0.519922 0.296831,1.940196 -0.05261,3.722513 -0.926197,5.469323 -0.834719,1.668822 -2.932715,0.890238 -3.091377,-0.629371 -0.21268,-2.036972 0.06793,-2.95847 0.177574,-4.32003 z m 25.36557,-0.96902 c 0.464578,-0.608689 1.135352,-1.024204 1.939014,-0.789394 2.510916,0.73402 1.770845,4.300133 0.889014,6.035953 -0.479155,0.942623 -2.027957,1.18166 -2.727887,0.351687 -1.140845,-1.353487 -1.687183,-4.056446 -0.236831,-5.389644 0.0393,-0.0689 0.08303,-0.138434 0.13669,-0.208602 z m -22.487134,-8.608509 0.396628,-0.06945 c 1.227,-0.21229 2.752633,-0.416276 3.620626,0.57056 0.460352,0.523304 0.618803,1.495938 0,1.996838 -1.088451,0.881331 -2.291831,0.539789 -3.596197,0.614395 -1.07493,0.06171 -2.108028,0.239672 -3.143451,0.535773 -2.271549,0.64948 -4.122465,1.835155 -6.062535,3.137073 -0.254578,0.170771 -0.514437,-0.15492 -0.392958,-0.393112 1.11993,-2.19445 3.290282,-3.997057 5.464225,-5.095867 1.160282,-0.586497 2.43,-1.073025 3.713662,-1.29621 z m 20.198235,-0.983014 0.303576,0.06215 c 3.303642,0.690821 7.595846,2.070794 9.160279,5.317019 0.05961,0.459028 -0.0034,0.557407 -0.05459,0.621682 l -0.01705,0.02139 c -0.0422,0.05489 -0.07588,0.130549 -0.274764,0.193024 -0.05519,-0.01316 -0.110931,-0.02709 -0.167261,-0.04186 -0.717109,-0.188001 -1.284481,-0.447 -1.833757,-0.715742 L 47.125001,16.192275 C 46.434039,15.85335 45.736976,15.52676 44.998249,15.285659 43.421742,14.771244 41.80017,14.408871 40.153474,14.215372 c -0.356909,-0.0419 -0.700589,-0.162408 -0.971729,-0.368932 -0.257365,-0.196032 -0.453976,-0.467444 -0.543619,-0.828209 -0.116178,-0.466887 -0.08279,-0.820359 0.167616,-1.24156 0.188291,-0.316313 0.457705,-0.535559 0.767061,-0.661458 0.315374,-0.128348 0.674425,-0.158606 1.031326,-0.08708 z"
               id="path43"
               style="fill:#333333" />
          </g>
          <g
             id="accessories/Glasses-3"
             transform="translate(88.521127,88.978474)"
             fill="#000000"
             fill-rule="evenodd">
            <path
               d="m 77.563437,20.779602 c -1.422465,1.911663 -4.059507,2.520563 -6.491831,2.31027 -5.245986,-0.505128 -6.897043,-6.465417 -7.069015,-11.098004 3.517818,0.989964 -0.297464,-6.0213702 11.727677,-6.792376 4.239084,-0.3533777 3.070352,2.2077651 4.943239,4.0790606 -0.03845,3.9273114 -0.691901,8.1946854 -3.11007,11.5010494 M 52.576606,16.26685 c -3.097184,14.509832 -20.057324,11.058481 -21.838944,-2.021143 1.645141,-1.161581 1.211831,-4.029816 3.255634,-5.0690252 3.239155,-2.0703875 7.28831,-1.9818317 10.96669,-1.9332211 4.70176,0.3231546 6.04162,2.2715929 8.456831,4.3973543 -0.116197,1.419851 -0.451268,3.102622 -0.840211,4.626035 M 84.281958,2.7964391 C 84.108085,2.7674842 83.934,2.74022 83.759916,2.7146466 83.62407,2.6375037 83.464563,2.5781143 83.27907,2.5423961 82.855479,2.4348188 82.434845,2.3623256 82.014845,2.3232258 75.986958,0.9661456 62.041817,2.8930262 61.466324,8.0389832 59.546746,8.6800086 57.885761,8.1059812 55.660901,8.1630458 53.96738,1.0817542 24.689282,2.0812298 23.281183,6.3505057 c -0.0053,-0.00148 -0.01056,-0.00275 -0.01606,-0.00444 C 21.912169,5.927171 19.917591,6.0281965 18.369,5.9618325 15.062451,5.8925096 11.752099,6.1873432 8.5169578,6.8850106 2.4588592,7.8481339 -5.8090986,8.9756877 -1.5957887,16.543719 c 8.45e-4,0.0013 0.00148,0.0027 0.00254,0.004 l 6.338e-4,-6.34e-4 c 0.72612674,0.744587 1.95845069,0.144986 2.00429576,-0.862944 C -1.0048732,12.098811 2.1945634,11.66829 4.6562535,10.637958 10.781535,8.4365331 17.017732,8.1313433 23.352803,8.8123139 c 0.476619,0.5613464 1.199788,1.0508337 1.964155,1.3069901 4.235704,0.703374 2.00345,3.846576 4.680845,4.303726 -0.491831,10.956822 12.805563,16.937613 20.510282,9.735006 3.076267,-3.008783 3.809577,-7.465949 4.522816,-11.483507 0.377113,-0.08475 0.616902,-0.291029 0.756972,-0.564094 0.906972,-0.905847 1.476761,-1.742372 3.270211,-1.991131 1.793451,-0.2485478 3.174085,0.25045 3.360846,0.403257 0.04711,0.0949 0.0976,0.190003 0.156338,0.285111 0.08197,0.141816 0.193521,0.254889 0.320281,0.343867 -1.771056,10.910747 6.695916,17.810912 15.243592,12.152008 3.714084,-3.4951 4.498944,-8.846067 4.654014,-13.6221607 0.503451,-0.3039217 0.822253,-0.892955 0.647958,-1.6335264 C 83.200901,7.027038 83.764141,6.143171 84.661183,5.6993354 85.826746,5.1229832 85.620549,3.0181456 84.281958,2.7964391"
               id="path47"
               style="fill:#000000" />
          </g>
        </g>
      </g>
    </g>
  </g>
  <metadata
     id="metadata265">
    <rdf:RDF>
      <cc:Work
         rdf:about="">
        <dc:title>girl</dc:title>
      </cc:Work>
    </rdf:RDF>
  </metadata>
</svg>
